<?xml version="1.0" encoding="UTF-8"?>
<svg width="35px" height="35px" viewBox="0 0 35 35" version="1.1" xmlns="http://www.w3.org/2000/svg" xmlns:xlink="http://www.w3.org/1999/xlink">
    <!-- Generator: Sketch 63.1 (92452) - https://sketch.com -->
    <title>map_icon</title>
    <desc>Created with Sketch.</desc>
    <defs>
        <path d="M10.2555408,4.92498016e-16 L24.7444592,4.14336123e-16 C28.3105342,-2.4074122e-16 29.6036791,0.371302445 30.9073828,1.06853082 C32.2110865,1.76575919 33.2342408,2.78891348 33.9314692,4.09261719 C34.6286976,5.39632089 35,6.68946584 35,10.2555408 L35,24.7444592 C35,28.3105342 34.6286976,29.6036791 33.9314692,30.9073828 C33.2342408,32.2110865 32.2110865,33.2342408 30.9073828,33.9314692 C29.6036791,34.6286976 28.3105342,35 24.7444592,35 L10.2555408,35 C6.68946584,35 5.39632089,34.6286976 4.09261719,33.9314692 C2.78891348,33.2342408 1.76575919,32.2110865 1.06853082,30.9073828 C0.371302445,29.6036791 -3.66402603e-16,28.3105342 6.30610057e-16,24.7444592 L2.76224082e-16,10.2555408 C-1.60494146e-16,6.68946584 0.371302445,5.39632089 1.06853082,4.09261719 C1.76575919,2.78891348 2.78891348,1.76575919 4.09261719,1.06853082 C5.39632089,0.371302445 6.68946584,-2.8615553e-16 10.2555408,4.92498016e-16 Z" id="path-1"></path>
    </defs>
    <g id="Page-1" stroke="none" stroke-width="1" fill="none" fill-rule="evenodd">
        <g id="data_visualization_kit_desktop" transform="translate(-775.000000, -1573.000000)">
            <g id="Group-10" transform="translate(400.000000, 1445.000000)">
                <g id="Group-8" transform="translate(0.000000, 128.000000)">
                    <g id="map_icon" transform="translate(375.000000, 0.000000)">
                        <mask id="mask-2" fill="white">
                            <use xlink:href="#path-1"></use>
                        </mask>
                        <use id="container" fill="#FFFFFF" xlink:href="#path-1"></use>
                        <g id="globe" mask="url(#mask-2)">
                            <g transform="translate(8.000000, 8.000000)" id="path">
                                <path d="M5.7,9.5 C5.65758844,10.9773044 5.9742551,12.5606378 6.65,14.25 C7.3257449,15.9393622 8.2757449,17.5226956 9.5,19 C6.65,18.6833333 4.43333333,17.7333333 2.85,16.15 C1.26666667,14.5666667 0.316666667,12.35 0,9.5 L5.7,9.5 Z" stroke="none" fill="#566DFF" fill-rule="evenodd" opacity="0.100000001"></path>
                                <path d="M15.2,0 C15.1575884,1.47730442 15.4742551,3.06063776 16.15,4.75 C16.8257449,6.43936224 17.7757449,8.02269558 19,9.5 C16.15,9.18333333 13.9333333,8.23333333 12.35,6.65 C10.7666667,5.06666667 9.81666667,2.85 9.5,0 L15.2,0 Z" stroke="none" fill="#566DFF" fill-rule="evenodd" opacity="0.100000001" transform="translate(14.250000, 4.750000) rotate(-180.000000) translate(-14.250000, -4.750000) "></path>
                                <line x1="0" y1="9.5" x2="19" y2="9.5" stroke="#D15AFF" stroke-width="1" fill="none" stroke-linecap="round"></line>
                                <path d="M9.5,0 C11.8762164,2.60143525 13.2266151,5.97743216 13.3,9.5 C13.2266151,13.0225678 11.8762164,16.3985648 9.5,19 C7.12378364,16.3985648 5.77338488,13.0225678 5.7,9.5 C5.77338488,5.97743216 7.12378364,2.60143525 9.5,0 L9.5,0 Z" stroke="none" fill="#D15AFF" fill-rule="evenodd" opacity="0.100000001"></path>
                                <path d="M9.5,0 C11.8762164,2.60143525 13.2266151,5.97743216 13.3,9.5 C13.2266151,13.0225678 11.8762164,16.3985648 9.5,19 C7.12378364,16.3985648 5.77338488,13.0225678 5.7,9.5 C5.77338488,5.97743216 7.12378364,2.60143525 9.5,0 L9.5,0 Z" stroke="#D15AFF" stroke-width="1" fill="none" stroke-linecap="round"></path>
                                <circle stroke="#566DFF" stroke-width="1" fill="none" cx="9.5" cy="9.5" r="9.5"></circle>
                            </g>
                        </g>
                    </g>
                </g>
            </g>
        </g>
    </g>
</svg>