<?xml version="1.0" encoding="UTF-8"?>
<svg width="35px" height="35px" viewBox="0 0 35 35" version="1.1" xmlns="http://www.w3.org/2000/svg" xmlns:xlink="http://www.w3.org/1999/xlink">
    <!-- Generator: Sketch 63.1 (92452) - https://sketch.com -->
    <title>area_icon copy</title>
    <desc>Created with Sketch.</desc>
    <defs>
        <path d="M10.2555408,4.92498016e-16 L24.7444592,4.14336123e-16 C28.3105342,-2.4074122e-16 29.6036791,0.371302445 30.9073828,1.06853082 C32.2110865,1.76575919 33.2342408,2.78891348 33.9314692,4.09261719 C34.6286976,5.39632089 35,6.68946584 35,10.2555408 L35,24.7444592 C35,28.3105342 34.6286976,29.6036791 33.9314692,30.9073828 C33.2342408,32.2110865 32.2110865,33.2342408 30.9073828,33.9314692 C29.6036791,34.6286976 28.3105342,35 24.7444592,35 L10.2555408,35 C6.68946584,35 5.39632089,34.6286976 4.09261719,33.9314692 C2.78891348,33.2342408 1.76575919,32.2110865 1.06853082,30.9073828 C0.371302445,29.6036791 -3.66402603e-16,28.3105342 6.30610057e-16,24.7444592 L2.76224082e-16,10.2555408 C-1.60494146e-16,6.68946584 0.371302445,5.39632089 1.06853082,4.09261719 C1.76575919,2.78891348 2.78891348,1.76575919 4.09261719,1.06853082 C5.39632089,0.371302445 6.68946584,-2.8615553e-16 10.2555408,4.92498016e-16 Z" id="path-1"></path>
    </defs>
    <g id="Page-1" stroke="none" stroke-width="1" fill="none" fill-rule="evenodd">
        <g id="data_visualization_kit_desktop" transform="translate(-250.000000, -2263.000000)">
            <g id="area_icon-copy" transform="translate(250.000000, 2263.000000)">
                <mask id="mask-2" fill="white">
                    <use xlink:href="#path-1"></use>
                </mask>
                <use id="container" fill="#FFFFFF" xlink:href="#path-1"></use>
                <polygon id="Path-3" fill="#D15AFF" opacity="0.100000001" mask="url(#mask-2)" points="-0.5 16 11.5 21 23.5 16 35.5 20.5 35.5 35 -0.5 35"></polygon>
                <polyline id="Path-2" stroke="#D15AFF" stroke-linecap="round" mask="url(#mask-2)" points="-0.5 16 11.5 21 23.5 16 35.5 20.5"></polyline>
                <circle id="Oval-Copy" fill="#566DFF" mask="url(#mask-2)" cx="11.5" cy="14.5" r="1.5"></circle>
                <circle id="Oval-Copy-2" fill="#566DFF" mask="url(#mask-2)" cx="23.5" cy="21.5" r="1.5"></circle>
                <polyline id="Path" stroke="#566DFF" mask="url(#mask-2)" points="35.5 7.5 23.5 21.5 11.5 14.5 -0.5 20.5"></polyline>
                <polygon id="Path-4" fill="#0D1024" mask="url(#mask-2)" points="-0.5 35 35 0 35 35"></polygon>
                <polyline id="Path-6" stroke="#FFAD6B" mask="url(#mask-2)" points="16 19 26 16 35 21"></polyline>
                <polygon id="Path-7" fill="#FFAD6B" opacity="0.200000003" mask="url(#mask-2)" points="16 18.8 1 33 1 35 35 35 35 21 26 16"></polygon>
                <polyline id="Path-5" stroke="#FFFFFF" mask="url(#mask-2)" points="16.9 17.7 26 23 35.5 13"></polyline>
                <circle id="Oval-Copy" fill="#FFFFFF" mask="url(#mask-2)" cx="26" cy="23" r="1.5"></circle>
            </g>
        </g>
    </g>
</svg>