<?xml version="1.0" encoding="UTF-8"?>
<svg width="35px" height="35px" viewBox="0 0 35 35" version="1.1" xmlns="http://www.w3.org/2000/svg" xmlns:xlink="http://www.w3.org/1999/xlink">
    <!-- Generator: Sketch 63.1 (92452) - https://sketch.com -->
    <title>area_icon copy</title>
    <desc>Created with Sketch.</desc>
    <defs>
        <path d="M10.2555408,4.92498016e-16 L24.7444592,4.14336123e-16 C28.3105342,-2.4074122e-16 29.6036791,0.371302445 30.9073828,1.06853082 C32.2110865,1.76575919 33.2342408,2.78891348 33.9314692,4.09261719 C34.6286976,5.39632089 35,6.68946584 35,10.2555408 L35,24.7444592 C35,28.3105342 34.6286976,29.6036791 33.9314692,30.9073828 C33.2342408,32.2110865 32.2110865,33.2342408 30.9073828,33.9314692 C29.6036791,34.6286976 28.3105342,35 24.7444592,35 L10.2555408,35 C6.68946584,35 5.39632089,34.6286976 4.09261719,33.9314692 C2.78891348,33.2342408 1.76575919,32.2110865 1.06853082,30.9073828 C0.371302445,29.6036791 -3.66402603e-16,28.3105342 6.30610057e-16,24.7444592 L2.76224082e-16,10.2555408 C-1.60494146e-16,6.68946584 0.371302445,5.39632089 1.06853082,4.09261719 C1.76575919,2.78891348 2.78891348,1.76575919 4.09261719,1.06853082 C5.39632089,0.371302445 6.68946584,-2.8615553e-16 10.2555408,4.92498016e-16 Z" id="path-1"></path>
    </defs>
    <g id="Page-1" stroke="none" stroke-width="1" fill="none" fill-rule="evenodd">
        <g id="data_visualization_kit_desktop" transform="translate(-250.000000, -2934.000000)">
            <g id="Group-27" transform="translate(250.000000, 2934.000000)">
                <g id="Group-12">
                    <g id="area_icon-copy">
                        <mask id="mask-2" fill="white">
                            <use xlink:href="#path-1"></use>
                        </mask>
                        <use id="container" fill="#FFFFFF" xlink:href="#path-1"></use>
                        <g id="refresh-cw" mask="url(#mask-2)" stroke-linecap="round" stroke-linejoin="round">
                            <g transform="translate(17.555556, 18.444444) rotate(-270.000000) translate(-17.555556, -18.444444) translate(8.555556, 11.444444)">
                                <path d="M1.95222222,4.66666667 C2.75401905,2.40085351 4.6622078,0.704836413 7.00644523,0.174423095 C9.35068266,-0.355990223 11.8031207,0.353380014 13.5022222,2.05333333 L17.1111111,5.44444444 M0,8.55555556 L3.60888889,11.9466667 C5.30799045,13.64662 7.76042846,14.3559902 10.1046659,13.8255769 C12.4489033,13.2951636 14.3570921,11.5991465 15.1588889,9.33333333" id="Shape" stroke="#566DFF" fill-opacity="0.1" fill="#566DFF" fill-rule="evenodd"></path>
                                <polyline id="Path" stroke="#D25FFF" fill="none" points="17.1111111 0.777777778 17.1111111 5.44444444 12.4444444 5.44444444"></polyline>
                                <polyline id="Path" stroke="#D25FFF" fill="none" points="0 13.2222222 0 8.55555556 4.66666667 8.55555556"></polyline>
                            </g>
                        </g>
                    </g>
                </g>
            </g>
        </g>
    </g>
</svg>